<?xml version="1.0" encoding="UTF-8" standalone="no"?>
<svg width="91px" height="80px" viewBox="0 0 91 80" version="1.1" xmlns="http://www.w3.org/2000/svg" xmlns:xlink="http://www.w3.org/1999/xlink">
    <!-- Generator: Sketch 50.2 (55047) - http://www.bohemiancoding.com/sketch -->
    <title>Shape</title>
    <desc>Created with Sketch.</desc>
    <defs></defs>
    <g id="Page-1" stroke="none" stroke-width="1" fill="none" fill-rule="evenodd">
        <g id="Mobile_Academic_TeacherZone_Thank-you-page" transform="translate(-142.000000, -257.000000)" stroke="#00A2E6">
            <g id="MOBIL-TAHNK-YOU" transform="translate(22.000000, 157.000000)">
                <path d="M204.571429,134.428571 L187.857143,145.571429 C187.857143,142.189535 186.319429,139.197714 183.940392,137.152964 C189.603731,133.740482 193.428571,127.592392 193.428571,120.5 C193.428571,109.730319 184.698106,101 173.928571,101 C163.159036,101 154.428571,109.730465 154.428571,120.5 C154.428571,125.962768 156.687731,130.88791 160.309232,134.428571 L150.09116,134.428571 C152.75991,131.467339 154.428571,127.586857 154.428571,123.285714 C154.428571,114.053894 146.946106,106.571429 137.714286,106.571429 C128.482465,106.571429 121,114.053894 121,123.285714 C121,128.322286 123.27591,132.784964 126.799821,135.849322 C123.359518,137.746375 121,141.364964 121,145.571429 L121,167.857143 C121,174.010768 125.989232,179 132.142857,179 L176.714286,179 C182.86791,179 187.857143,174.010768 187.857143,167.857143 L204.571429,179 C207.649625,179 210.142857,176.506768 210.142857,173.428571 L210.142857,140 C210.142857,136.921804 207.649625,134.428571 204.571429,134.428571 L204.571429,134.428571 Z M137.714286,134.428571 C131.560661,134.428571 126.571429,129.439339 126.571429,123.285714 C126.571429,117.13209 131.560661,112.142857 137.714286,112.142857 C143.86791,112.142857 148.857143,117.13209 148.857143,123.285714 C148.857143,129.439339 143.86791,134.428571 137.714286,134.428571 L137.714286,134.428571 Z M173.928571,134.45916 C166.217714,134.45916 159.969412,128.207944 159.969412,120.5 C159.969412,112.789143 166.220627,106.54084 173.928571,106.54084 C181.636515,106.54084 187.887731,112.789143 187.887731,120.5 C187.887731,128.210857 181.639283,134.45916 173.928571,134.45916 L173.928571,134.45916 Z" id="Shape"></path>
            </g>
        </g>
    </g>
</svg>