<?xml version="1.0" encoding="UTF-8" standalone="no"?>
<svg width="21px" height="18px" viewBox="0 0 21 18" version="1.1" xmlns="http://www.w3.org/2000/svg" xmlns:xlink="http://www.w3.org/1999/xlink">
    <!-- Generator: Sketch 50.2 (55047) - http://www.bohemiancoding.com/sketch -->
    <title>Shape</title>
    <desc>Created with Sketch.</desc>
    <defs></defs>
    <g id="Page-1" stroke="none" stroke-width="1" fill="none" fill-rule="evenodd">
        <g id="Mobile_Academic_TeacherZone_Home" transform="translate(-41.000000, -364.000000)" fill="#FFFFFF">
            <g id="Group-7" transform="translate(22.000000, 348.000000)">
                <g id="Group-4" transform="translate(19.000000, 15.000000)">
                    <path d="M19.2677239,8.70708955 L15.4141791,11.2761194 C15.4141791,10.4964104 15.059653,9.80663433 14.5111567,9.33520896 C15.8168619,8.54844776 16.698694,7.13098134 16.698694,5.49580224 C16.698694,3.0128097 14.6858507,1 12.2028918,1 C9.71993284,1 7.70708955,3.01284328 7.70708955,5.49580224 C7.70708955,6.75526493 8.22794776,7.89077612 9.06289925,8.70708955 L6.70708209,8.70708955 C7.32237313,8.02436567 7.70708955,7.12970522 7.70708955,6.1380597 C7.70708955,4.00962687 5.98197761,2.28451493 3.85354478,2.28451493 C1.72511194,2.28451493 0,4.00962687 0,6.1380597 C0,7.29926119 0.524720149,8.32814925 1.33717164,9.03464925 C0.543996269,9.47202239 0,10.3063022 0,11.2761194 L0,16.4141791 C0,17.8329216 1.15028731,18.983209 2.56902985,18.983209 L12.8451493,18.983209 C14.2638918,18.983209 15.4141791,17.8329216 15.4141791,16.4141791 L19.2677239,18.983209 C19.9774142,18.983209 20.5522388,18.4083843 20.5522388,17.698694 L20.5522388,9.99160448 C20.5522388,9.28191418 19.9774142,8.70708955 19.2677239,8.70708955 L19.2677239,8.70708955 Z M3.85354478,8.70708955 C2.43480224,8.70708955 1.28451493,7.55680224 1.28451493,6.1380597 C1.28451493,4.71931716 2.43480224,3.56902985 3.85354478,3.56902985 C5.27228731,3.56902985 6.42257463,4.71931716 6.42257463,6.1380597 C6.42257463,7.55680224 5.27228731,8.70708955 3.85354478,8.70708955 L3.85354478,8.70708955 Z M12.2028918,8.71414179 C10.4251231,8.71414179 8.98455224,7.27289925 8.98455224,5.49580224 C8.98455224,3.71803358 10.4257948,2.27746269 12.2028918,2.27746269 C13.9799888,2.27746269 15.4212313,3.71803358 15.4212313,5.49580224 C15.4212313,7.2735709 13.9806269,8.71414179 12.2028918,8.71414179 L12.2028918,8.71414179 Z" id="Shape"></path>
                </g>
            </g>
        </g>
    </g>
</svg>