<?xml version="1.0" encoding="utf-8"?>
<!-- Generator: Adobe Illustrator 19.1.0, SVG Export Plug-In . SVG Version: 6.00 Build 0)  -->
<svg version="1.1" id="Layer_1" xmlns="http://www.w3.org/2000/svg" xmlns:xlink="http://www.w3.org/1999/xlink" x="0px" y="0px"
	 viewBox="0 0 150 107" enable-background="new 0 0 150 107" xml:space="preserve">
<path d="M25.7,7.5L22.9,21c3.1-4.7,6.8-9.2,11-13.5H25.7z"/>
<path d="M29.6,35.7c-3.2,7.2-4.9,14.6-4.9,21.8c0,5.5,1,10.8,2.9,15.7c1.7,4.2,4.1,8.1,7.1,11.5h13.5c-1.9-1.2-3.6-2.6-5.2-4.2
	c-7.6-7.6-11.2-18-10.2-29.2c0.5-5.5,2.2-11.1,4.9-16.5c2.8-5.6,6.6-10.9,11.4-15.7c4.6-4.6,9.8-8.3,15.4-11.1
	c0.4-0.2,0.8-0.4,1.3-0.6h-13c-3,2.2-5.8,4.6-8.5,7.3C37.9,21.1,33,28.2,29.6,35.7"/>
<path d="M46.8,25.5h6.6c0.3-0.4,0.7-0.7,1.1-1.1c7-7,15.7-11.5,24.6-12.8l0.8-4.1h-7.2C65,9.9,57.4,14.5,50.9,21
	C49.5,22.4,48.1,23.9,46.8,25.5"/>
<path d="M87.9,57.7c4.6-4.6,7.1-9.9,7.1-14.8c0-3.8-1.5-7.3-4.2-10.1c-1.3-1.3-2.9-2.3-4.6-3l-0.9,4.3c0.9,0.5,1.7,1.1,2.4,1.8
	c2.4,2.4,3.6,5.7,3.3,9.3c-0.3,3.6-2,7.1-4.9,10c-1.7,1.7-3.8,3.1-5.9,4l-0.8,4C82.4,62.1,85.4,60.2,87.9,57.7"/>
<path d="M97.6,42.8c0,5.7-2.8,11.6-7.9,16.7c-3.2,3.2-7,5.5-11,6.7l-1,4.7c5.1-1.4,10.2-4.3,14.5-8.6c11.1-11.1,12.8-26.2,3.9-35.1
	c-2.3-2.3-5.2-3.9-8.5-4.8l-1,4.9c2.2,0.8,4.3,2,5.9,3.7C95.9,34.2,97.6,38.3,97.6,42.8"/>
<path d="M88.4,45c0.2-2.8-0.7-5.4-2.5-7.3c-0.3-0.3-0.7-0.6-1.1-0.9L80.9,56c1.3-0.7,2.4-1.6,3.5-2.7C86.7,50.9,88.2,48,88.4,45"/>
<path d="M14.3,79.1c-0.8-2-1.5-4.1-2-6.2L9.9,84.8H17C16,82.9,15.1,81,14.3,79.1"/>
<path d="M22.1,57.5c0-7.6,1.7-15.3,5.1-22.8c3.5-7.8,8.6-15.1,15.2-21.7c1.9-1.9,4-3.8,6.1-5.5h-11c-0.4,0.4-0.9,0.9-1.3,1.3
	c-6.1,6.1-11.1,12.7-14.9,19.8l-7.8,37.9c0.5,4.1,1.6,8,3.1,11.7c0.9,2.3,2,4.5,3.3,6.6h11.4c-2.6-3.2-4.6-6.8-6.1-10.6
	C23.2,69,22.1,63.4,22.1,57.5"/>
<path d="M29.2,97.1c-0.4,1.9-1.6,3.2-3,3.2c-0.8,0-1.6-0.4-1.6-1.4c0-0.3,0-0.5,0.1-0.8l1-4.9h-0.9l-1,4.9c-0.1,0.4-0.1,0.7-0.1,0.9
	c0,1.5,1,2.1,2.3,2.1c1.1,0,2.1-0.7,2.7-1.6h0l-0.3,1.4h0.9l1.6-7.7H30L29.2,97.1z"/>
<polygon points="9.6,91.1 15.7,91.1 15.9,90.3 8.8,90.3 6.6,100.9 13.9,100.9 14.1,100 7.8,100 8.7,95.8 14.3,95.8 14.5,95 8.8,95 
	"/>
<path d="M22.8,90.3l-0.9,4.4h0c-0.4-1.2-1.3-1.7-2.5-1.7c-2.6,0-4.2,2.6-4.1,5c0,1.9,1,3.1,2.9,3.1c1.3,0,2.1-0.6,2.8-1.6h0
	l-0.3,1.4h0.9l2.2-10.6H22.8z M18.3,100.3c-1.4,0-2.1-1-2.1-2.3c0-1.9,1.1-4.2,3.2-4.2c1.4,0,2.1,0.9,2.2,2.2
	C21.6,97.9,20.4,100.3,18.3,100.3"/>
<path d="M43.7,53.6c0,0.4,0,0.7,0,1.1h5.8c-0.1-0.9-0.1-1.8-0.1-2.7c0-5.3,1.6-10.7,4.5-15.6h-5.5C45.3,42,43.7,47.8,43.7,53.6"/>
<path d="M69.6,36.5h-4.7c-3.8,4.2-6,9.3-6,14.2c0,1.4,0.2,2.8,0.5,4.1h4.6c-0.8-1.6-1.2-3.3-1.2-5.2c0-4.1,1.9-8.2,5.3-11.6
	C68.5,37.4,69,36.9,69.6,36.5"/>
<path d="M51.9,52c0,0.9,0.1,1.8,0.2,2.7h4.7c-0.3-1.3-0.5-2.7-0.5-4.1c0-2.9,0.6-5.8,1.9-8.7c0.9-1.9,2-3.8,3.3-5.5h-4.6
	C53.7,41.3,51.9,46.8,51.9,52"/>
<path d="M94.1,64.1c-4.9,4.9-10.9,8.3-16.9,9.6l-1,5.1c7.7-1.5,15.4-5.7,21.4-11.7c6.8-6.8,11.2-15.1,12.4-23.3
	c0.2-1.5,0.3-2.9,0.3-4.4c0-0.3,0-0.7,0-1c-0.2-6.7-2.9-12.6-7.7-17.5c-3.6-3.6-8.2-5.8-13.2-6.7l-1.2,5.7c3.7,0.9,7.1,2.8,9.8,5.5
	C107.9,35.2,106.3,51.9,94.1,64.1"/>
<path d="M104.5,19.1c3.4,3.4,5.9,7.4,7.2,11.9c0,0.1,0.1,0.3,0.1,0.4l1.2-5.9h3.4c-1.6-4.1-4.1-7.8-7.3-11
	c-3.1-3.1-6.8-5.4-10.9-6.9h-7.5l-0.9,4.2c1.2,0.2,2.4,0.5,3.6,0.9C97.7,13.8,101.4,16.1,104.5,19.1"/>
<path d="M119.2,25.5h8.7c-1.7-6.7-4.9-12.8-9.7-18h-14c2.5,1.4,4.7,3.1,6.7,5.1C114.7,16.3,117.4,20.7,119.2,25.5"/>
<path d="M77.5,19.6l1.1-5.4c-7.5,1.3-15.1,5.1-21.5,11.2h7C68.2,22.5,72.8,20.5,77.5,19.6"/>
<path d="M76.9,22.3c-2.8,0.6-5.5,1.7-8.2,3.1h7.5L76.9,22.3z"/>
<path d="M35.4,51.6c-1,10.5,2.4,20.1,9.4,27.2c2.5,2.5,5.5,4.5,8.8,6h10.4l0.7-3.2c-6-0.9-11.3-3.6-15.5-7.8
	c-2.2-2.2-3.9-4.7-5.2-7.4h-6.1l2.3-11.7h0.9c0-0.4,0-0.7,0-1.1c0-5.8,1.5-11.6,4.4-17.1H44l2-10C39.9,34.2,36.2,42.9,35.4,51.6"/>
<path d="M67.9,66.5L67.9,66.5L67.9,66.5l-9.9,0c2.6,2.4,5.6,4,8.9,4.8L67.9,66.5z"/>
<path d="M35.7,93.8c1.1,0,1.9,0.7,1.9,1.8h0.9c0-1.8-1.2-2.6-2.9-2.6c-2.6,0-4.1,2.6-4.1,4.9c0,1.9,1.1,3.2,3,3.2c1.9,0,3-1,3.6-2.7
	h-0.9c-0.4,1.1-1.3,1.9-2.5,1.9c-1.5,0-2.1-1-2.2-2.4C32.5,95.9,33.5,93.8,35.7,93.8"/>
<path d="M66.4,73.7c-4.1-0.9-7.8-3-10.8-6c-0.4-0.4-0.8-0.8-1.1-1.2h-7.6c1.1,2.1,2.5,3.9,4.2,5.6c3.8,3.8,8.7,6.2,14.2,7.1
	L66.4,73.7z"/>
<polygon points="79.6,100.9 80.6,100.9 82.1,93.2 81.2,93.2 "/>
<path d="M97.3,90.9h-0.9l-0.5,2.3h-1.4L94.3,94h1.4l-1,5.1c-0.1,0.3-0.1,0.6-0.1,0.8c0,0.9,0.7,1.1,1.4,1.1c0.3,0,0.6,0,1-0.1
	l0.2-0.8c-0.4,0.1-0.7,0.1-1.1,0.1c-0.4,0-0.5-0.3-0.5-0.5c0-0.2,0-0.4,0.1-0.7l1-4.9h1.6l0.1-0.8h-1.5L97.3,90.9z"/>
<polygon points="82.7,90.3 81.8,90.3 81.5,91.8 82.4,91.8 "/>
<path d="M100.9,84.8l1.7-8.5c-3.8,3.4-8,6.3-12.6,8.5H100.9z"/>
<path d="M87.5,93.1c-0.2,0-0.3,0-0.5,0c-1.4,0-2.2,0.8-2.8,1.9h0l0.4-1.8h-0.8l-1.6,7.7h0.9l0.8-4c0.3-1.4,1.2-2.8,2.8-2.8
	c0.2,0,0.4,0,0.5,0L87.5,93.1z"/>
<path d="M90.9,93.8c1.1,0,1.9,0.5,1.8,1.7h0.9c0-1.8-1.2-2.5-2.8-2.5c-1.2,0-2.8,0.6-2.8,2.1c0,1.3,1,1.7,2.1,2.1
	c1,0.4,2.1,0.7,2.1,1.7c0,1-1.1,1.4-1.9,1.4c-1.1,0-2.2-0.4-2.2-1.9h-0.9c-0.1,1.9,1.4,2.7,2.9,2.7c1.5,0,3.1-0.6,3.1-2.3
	c0-1.4-1.5-1.8-2.5-2.3c-0.9-0.3-1.6-0.7-1.6-1.4C89,94,90.1,93.8,90.9,93.8"/>
<path d="M118.7,39.4h-5.7c0,1.6-0.1,3.1-0.3,4.8c-0.7,4.6-2.3,9.1-4.6,13.5h5.7c2.5-4.9,4.1-10.1,4.7-15.2
	C118.6,41.4,118.6,40.4,118.7,39.4"/>
<path d="M133.7,7.5h-12.1c4.4,5.2,7.4,11.3,8.9,18h9.3c-0.6-4-1.6-7.8-3-11.5C135.9,11.7,134.9,9.6,133.7,7.5"/>
<path d="M136.6,7.5c1,1.8,1.8,3.6,2.6,5.5c0.9,2.3,1.7,4.7,2.2,7.1L144,7.5H136.6z"/>
<path d="M129,39.4h-7.8c0,1.1-0.1,2.2-0.3,3.4c-0.6,5-2.1,10-4.4,14.9h7.9c2.3-5.4,3.8-10.9,4.4-16.5C128.9,40.6,129,40,129,39.4"/>
<path d="M131.4,41.4c-0.6,5.4-2,10.9-4.2,16.2h5.9l3.7-18.2h-5.2C131.5,40.1,131.5,40.8,131.4,41.4"/>
<path d="M75.6,81.5L75,84.8h8.6c7.1-2.5,13.7-6.7,19.2-12.2c0.3-0.3,0.5-0.5,0.8-0.8l2.1-10.4c-1.8,2.6-3.9,5.2-6.2,7.5
	C92.8,75.5,84.2,80,75.6,81.5"/>
<polygon points="53.5,90.3 53.1,91.8 54.1,91.8 54.4,90.3 "/>
<polygon points="51.3,100.9 52.2,100.9 53.8,93.2 52.8,93.2 "/>
<path d="M46,94.7c0-1.3-1.6-1.7-2.7-1.7c-1.7,0-3,0.8-3.2,2.5h0.9c0.2-1.3,1.2-1.7,2.4-1.7c0.7,0,1.6,0.2,1.6,1.1
	c0,1-0.3,1.4-0.9,1.5c-0.6,0.1-1.5,0.1-2.4,0.2c-1.4,0.2-2.6,0.8-2.6,2.4c0,1.5,1.1,2.1,2.5,2.1c1.1,0,2.1-0.5,2.7-1.4l0,0
	c0,0.1,0,0.3,0,0.4c0,0.5,0.3,0.8,0.8,0.8c0.3,0,0.6,0,0.8-0.1l0.1-0.7c-0.1,0-0.2,0-0.4,0c-0.2,0-0.5,0-0.5-0.3
	c0-0.5,0.2-0.9,0.5-2.6C45.7,96.6,46,95.4,46,94.7 M44.5,98.1c-0.3,1.3-1.2,2.2-2.7,2.2c-0.9,0-1.7-0.4-1.7-1.4c0-1.6,1.9-1.7,3-1.8
	c0.5,0,1.4-0.1,1.7-0.4l0,0L44.5,98.1z"/>
<polygon points="74.7,91.1 80.5,91.1 80.7,90.3 73.9,90.3 71.7,100.9 72.7,100.9 73.8,95.8 78.9,95.8 79.1,95 73.9,95 "/>
<path d="M58.5,93c-2.7,0-4.3,2.4-4.2,4.9c0,1.9,1.1,3.2,3.1,3.2c2.8,0,4.2-2.5,4.2-5.1C61.5,94.1,60.3,93,58.5,93 M57.5,100.3
	c-1.6,0-2.3-1-2.3-2.5c0-1.8,1.1-4,3.1-4c1.5,0,2.3,1,2.3,2.4C60.6,98,59.6,100.3,57.5,100.3"/>
<path d="M69.8,39.7c-2.9,2.9-4.5,6.4-4.5,9.8c0,2,0.6,3.7,1.6,5.2h2.7l3.5-17.6C72,37.8,70.9,38.7,69.8,39.7"/>
<path d="M67,93c-1.1,0-2.1,0.7-2.7,1.6h0l0.2-1.4h-0.9l-1.6,7.7H63l0.8-3.9c0.4-1.9,1.6-3.2,3-3.2c0.8,0,1.6,0.4,1.6,1.4
	c0,0.3,0,0.5-0.1,0.8l-1,4.9h0.9l1-4.9c0.1-0.4,0.1-0.7,0.1-0.9C69.3,93.6,68.3,93,67,93"/>
<path d="M50.2,90.9h-0.9l-0.5,2.3h-1.4L47.2,94h1.4l-1,5.1c-0.1,0.3-0.1,0.6-0.1,0.8c0,0.9,0.7,1.1,1.4,1.1c0.3,0,0.6,0,0.9-0.1
	l0.2-0.8c-0.4,0.1-0.7,0.1-1.1,0.1c-0.3,0-0.5-0.3-0.5-0.5c0-0.2,0-0.4,0.1-0.7l1-4.9h1.6l0.1-0.8h-1.5L50.2,90.9z"/>
<rect x="25.1" y="20.1" display="none" fill="none" width="100.4" height="68.9"/>
</svg>
