<?xml version="1.0" encoding="utf-8"?>
<!-- Generator: Adobe Illustrator 19.1.0, SVG Export Plug-In . SVG Version: 6.00 Build 0)  -->
<svg version="1.1" id="Layer_1" xmlns="http://www.w3.org/2000/svg" xmlns:xlink="http://www.w3.org/1999/xlink" x="0px" y="0px"
	 viewBox="0 0 150 150" enable-background="new 0 0 150 150" xml:space="preserve">
<path fill="#FFFFFF" d="M39,41.6l-2,9.9c2.3-3.5,5-6.8,8-9.9H39z"/>
<path fill="#FFFFFF" d="M41.9,62.2c-2.4,5.3-3.6,10.6-3.6,15.9c0,4.1,0.7,7.9,2.1,11.5c1.2,3.1,3,5.9,5.2,8.4h9.9
	c-1.4-0.9-2.7-1.9-3.8-3.1c-5.6-5.6-8.2-13.2-7.4-21.4c0.4-4.1,1.6-8.1,3.6-12.1c2-4.1,4.8-7.9,8.4-11.4c3.3-3.3,7.1-6.1,11.3-8.1
	c0.3-0.2,0.6-0.3,0.9-0.4h-9.5c-2.2,1.6-4.2,3.4-6.2,5.3C48,51.6,44.4,56.7,41.9,62.2"/>
<path fill="#FFFFFF" d="M54.5,54.7h4.8c0.3-0.3,0.5-0.5,0.8-0.8c5.1-5.1,11.5-8.4,18-9.4l0.6-3h-5.3c-5.6,1.8-11.2,5.1-16,9.8
	C56.4,52.5,55.4,53.6,54.5,54.7"/>
<path fill="#FFFFFF" d="M84.5,78.3c3.3-3.3,5.2-7.2,5.2-10.9c0-2.8-1.1-5.4-3.1-7.4c-1-1-2.1-1.7-3.4-2.2L82.6,61
	c0.6,0.3,1.2,0.8,1.7,1.3c1.8,1.8,2.6,4.2,2.4,6.8c-0.2,2.6-1.5,5.2-3.5,7.3c-1.3,1.3-2.8,2.3-4.3,2.9l-0.6,3
	C80.5,81.5,82.7,80.1,84.5,78.3"/>
<path fill="#FFFFFF" d="M91.6,67.4c0,4.1-2,8.5-5.7,12.2c-2.3,2.3-5.1,4-8,4.9l-0.7,3.5c3.8-1,7.5-3.2,10.6-6.3
	c8.1-8.1,9.4-19.2,2.9-25.7c-1.7-1.7-3.8-2.9-6.2-3.5L83.7,56c1.6,0.6,3.1,1.5,4.3,2.7C90.4,61.1,91.6,64.1,91.6,67.4"/>
<path fill="#FFFFFF" d="M84.9,69c0.2-2.1-0.5-4-1.9-5.4c-0.2-0.2-0.5-0.5-0.8-0.7l-2.9,14.1c0.9-0.5,1.8-1.2,2.5-1.9
	C83.7,73.3,84.7,71.2,84.9,69"/>
<path fill="#FFFFFF" d="M30.7,93.9c-0.6-1.5-1.1-3-1.5-4.5l-1.8,8.7h5.2C31.9,96.7,31.3,95.4,30.7,93.9"/>
<path fill="#FFFFFF" d="M36.4,78.1c0-5.5,1.3-11.2,3.7-16.7c2.6-5.7,6.3-11.1,11.1-15.9c1.4-1.4,2.9-2.8,4.4-4h-8
	c-0.3,0.3-0.6,0.6-1,0.9C42.3,47,38.7,51.8,35.9,57l-5.7,27.7c0.4,3,1.1,5.9,2.2,8.6c0.7,1.7,1.5,3.3,2.4,4.8h8.4
	c-1.9-2.3-3.4-4.9-4.5-7.7C37.2,86.5,36.4,82.4,36.4,78.1"/>
<path fill="#FFFFFF" d="M41.6,107.1c-0.3,1.4-1.2,2.3-2.2,2.3c-0.6,0-1.2-0.3-1.2-1c0-0.2,0-0.4,0.1-0.6l0.7-3.6h-0.7l-0.7,3.6
	c0,0.3-0.1,0.5-0.1,0.7c0,1.1,0.7,1.5,1.7,1.5c0.8,0,1.6-0.5,2-1.2h0l-0.2,1h0.6l1.2-5.6h-0.7L41.6,107.1z"/>
<polygon fill="#FFFFFF" points="27.3,102.7 31.7,102.7 31.9,102.1 26.7,102.1 25.1,109.8 30.4,109.8 30.5,109.2 26,109.2 
	26.6,106.2 30.7,106.2 30.9,105.5 26.7,105.5 "/>
<path fill="#FFFFFF" d="M36.9,102.1l-0.6,3.2h0c-0.3-0.9-1-1.2-1.8-1.2c-1.9,0-3,1.9-3,3.6c0,1.4,0.7,2.3,2.2,2.3c1,0,1.6-0.4,2-1.2
	h0l-0.2,1H36l1.6-7.7H36.9z M33.6,109.4c-1,0-1.5-0.7-1.5-1.7c0-1.4,0.8-3.1,2.4-3.1c1,0,1.6,0.6,1.6,1.6
	C36,107.7,35.2,109.4,33.6,109.4"/>
<path fill="#FFFFFF" d="M52.2,75.3c0,0.3,0,0.5,0,0.8h4.2c-0.1-0.6-0.1-1.3-0.1-2c0-3.9,1.2-7.8,3.3-11.4h-4
	C53.4,66.8,52.2,71.1,52.2,75.3"/>
<path fill="#FFFFFF" d="M71.1,62.8h-3.4c-2.8,3.1-4.4,6.8-4.4,10.4c0,1,0.1,2,0.4,3H67c-0.6-1.2-0.9-2.4-0.9-3.8c0-3,1.4-6,3.9-8.5
	C70.4,63.4,70.7,63.1,71.1,62.8"/>
<path fill="#FFFFFF" d="M58.2,74.1c0,0.7,0,1.3,0.1,2h3.4c-0.2-1-0.3-2-0.3-3c0-2.1,0.5-4.2,1.4-6.3c0.6-1.4,1.4-2.7,2.4-4h-3.4
	C59.5,66.3,58.2,70.3,58.2,74.1"/>
<path fill="#FFFFFF" d="M89,82.9c-3.6,3.6-7.9,6.1-12.3,7L76,93.7c5.7-1.1,11.3-4.1,15.7-8.5c5-5,8.2-11,9.1-17
	c0.2-1.1,0.2-2.2,0.2-3.2c0-0.2,0-0.5,0-0.7c-0.2-4.9-2.1-9.2-5.6-12.8c-2.6-2.6-6-4.3-9.7-4.9l-0.8,4.1c2.7,0.7,5.2,2,7.1,4
	C99.2,61.9,97.9,74,89,82.9"/>
<path fill="#FFFFFF" d="M96.6,50.1c2.5,2.5,4.3,5.4,5.3,8.7c0,0.1,0.1,0.2,0.1,0.3l0.9-4.3h2.5c-1.2-3-3-5.7-5.3-8.1
	c-2.3-2.3-5-4-8-5.1h-5.5l-0.6,3c0.9,0.2,1.8,0.4,2.6,0.6C91.7,46.2,94.4,47.8,96.6,50.1"/>
<path fill="#FFFFFF" d="M107.4,54.7h6.4c-1.2-4.9-3.6-9.4-7.1-13.1H96.5c1.8,1,3.4,2.3,4.9,3.7C104.1,48,106.1,51.2,107.4,54.7"/>
<path fill="#FFFFFF" d="M76.9,50.4l0.8-3.9c-5.5,0.9-11.1,3.7-15.7,8.2h5.1C70.1,52.5,73.4,51.1,76.9,50.4"/>
<path fill="#FFFFFF" d="M76.5,52.4c-2,0.5-4.1,1.2-6,2.3H76L76.5,52.4z"/>
<path fill="#FFFFFF" d="M46.1,73.8c-0.7,7.6,1.7,14.7,6.9,19.9c1.8,1.8,4,3.3,6.5,4.4h7.6l0.5-2.3c-4.4-0.7-8.3-2.6-11.3-5.7
	c-1.6-1.6-2.9-3.4-3.8-5.4H48l1.7-8.6h0.7c0-0.3,0-0.5,0-0.8c0-4.2,1.1-8.5,3.2-12.5h-1.1l1.5-7.3C49.4,61.1,46.7,67.5,46.1,73.8"/>
<path fill="#FFFFFF" d="M69.9,84.7L69.9,84.7L69.9,84.7l-7.3,0c1.9,1.7,4.1,2.9,6.5,3.5L69.9,84.7z"/>
<path fill="#FFFFFF" d="M46.4,104.7c0.8,0,1.4,0.5,1.4,1.3h0.7c0-1.3-0.9-1.9-2.1-1.9c-1.9,0-3,1.9-3,3.6c0,1.4,0.8,2.3,2.2,2.3
	c1.4,0,2.2-0.7,2.6-2h-0.7c-0.3,0.8-0.9,1.4-1.8,1.4c-1.1,0-1.6-0.7-1.6-1.7C44,106.2,44.7,104.7,46.4,104.7"/>
<path fill="#FFFFFF" d="M68.8,90c-3-0.7-5.7-2.2-7.9-4.4c-0.3-0.3-0.6-0.6-0.8-0.9h-5.5c0.8,1.5,1.8,2.9,3,4.1
	c2.8,2.8,6.4,4.6,10.4,5.2L68.8,90z"/>
<polygon fill="#FFFFFF" points="78.5,109.8 79.1,109.8 80.3,104.2 79.6,104.2 "/>
<path fill="#FFFFFF" d="M91.3,102.5h-0.7l-0.3,1.7h-1l-0.1,0.6h1l-0.7,3.7c-0.1,0.2-0.1,0.5-0.1,0.6c0,0.7,0.5,0.8,1,0.8
	c0.2,0,0.5,0,0.7,0l0.1-0.6c-0.3,0-0.5,0.1-0.8,0.1c-0.3,0-0.4-0.2-0.4-0.4c0-0.2,0-0.3,0.1-0.5l0.7-3.6H92l0.1-0.6H91L91.3,102.5z"
	/>
<polygon fill="#FFFFFF" points="80.7,102.1 80.1,102.1 79.8,103.2 80.5,103.2 "/>
<path fill="#FFFFFF" d="M94,98.1l1.3-6.2c-2.8,2.5-5.9,4.6-9.2,6.2H94z"/>
<path fill="#FFFFFF" d="M84.2,104.2c-0.1,0-0.2,0-0.4,0c-1,0-1.6,0.6-2,1.4h0l0.3-1.3h-0.6l-1.2,5.6H81l0.6-2.9
	c0.2-1.1,0.9-2,2.1-2.1c0.1,0,0.3,0,0.4,0L84.2,104.2z"/>
<path fill="#FFFFFF" d="M86.7,104.7c0.8,0,1.4,0.4,1.3,1.2h0.7c0-1.3-0.8-1.8-2-1.8c-0.9,0-2.1,0.4-2.1,1.5c0,0.9,0.8,1.3,1.5,1.6
	c0.7,0.3,1.5,0.5,1.5,1.2c0,0.7-0.8,1-1.4,1c-0.8,0-1.6-0.3-1.6-1.4H84c-0.1,1.4,1,2,2.1,2c1.1,0,2.3-0.5,2.2-1.7
	c0-1-1.1-1.3-1.8-1.6c-0.6-0.3-1.2-0.5-1.2-1C85.3,104.8,86.1,104.7,86.7,104.7"/>
<path fill="#FFFFFF" d="M107,64.9h-4.2c0,1.1-0.1,2.3-0.2,3.5c-0.5,3.3-1.6,6.7-3.4,9.9h4.2c1.8-3.6,3-7.4,3.5-11.1
	C106.9,66.4,107,65.7,107,64.9"/>
<path fill="#FFFFFF" d="M118,41.6h-8.8c3.2,3.8,5.4,8.3,6.5,13.1h6.8c-0.4-2.9-1.2-5.7-2.2-8.4C119.6,44.7,118.9,43.1,118,41.6"/>
<path fill="#FFFFFF" d="M120.1,41.6c0.7,1.3,1.3,2.6,1.9,4c0.7,1.7,1.2,3.4,1.6,5.2l1.9-9.2H120.1z"/>
<path fill="#FFFFFF" d="M114.6,64.9h-5.7c0,0.8-0.1,1.6-0.2,2.5c-0.4,3.7-1.6,7.3-3.2,10.9h5.8c1.7-3.9,2.8-8,3.2-12
	C114.5,65.8,114.5,65.3,114.6,64.9"/>
<path fill="#FFFFFF" d="M116.3,66.4c-0.4,4-1.5,8-3.1,11.8h4.3l2.7-13.3h-3.8C116.4,65.4,116.4,65.9,116.3,66.4"/>
<path fill="#FFFFFF" d="M75.6,95.7l-0.5,2.4h6.3c5.2-1.9,10-4.9,14-8.9c0.2-0.2,0.4-0.4,0.6-0.6l1.6-7.6c-1.3,1.9-2.8,3.8-4.5,5.5
	C88.1,91.3,81.8,94.6,75.6,95.7"/>
<polygon fill="#FFFFFF" points="59.3,102.1 59.1,103.2 59.8,103.2 60,102.1 "/>
<polygon fill="#FFFFFF" points="57.7,109.8 58.4,109.8 59.6,104.2 58.9,104.2 "/>
<path fill="#FFFFFF" d="M53.9,105.3c0-1-1.2-1.2-2-1.2c-1.2,0-2.2,0.6-2.4,1.8h0.7c0.1-0.9,0.9-1.3,1.7-1.3c0.5,0,1.2,0.1,1.2,0.8
	c0,0.7-0.2,1-0.7,1.1c-0.4,0.1-1.1,0.1-1.8,0.2c-1,0.2-1.9,0.5-1.9,1.7c0,1.1,0.8,1.6,1.8,1.6c0.8,0,1.5-0.4,1.9-1l0,0
	c0,0.1,0,0.2,0,0.3c0,0.4,0.2,0.6,0.6,0.6c0.2,0,0.4,0,0.6-0.1l0.1-0.5c-0.1,0-0.2,0-0.3,0c-0.2,0-0.4,0-0.4-0.2
	c0-0.3,0.1-0.6,0.3-1.9C53.7,106.7,53.9,105.9,53.9,105.3 M52.8,107.8c-0.2,1-0.9,1.6-2,1.6c-0.7,0-1.2-0.3-1.3-1
	c0-1.2,1.4-1.2,2.2-1.3c0.3,0,1,0,1.2-0.3l0,0L52.8,107.8z"/>
<polygon fill="#FFFFFF" points="74.9,102.7 79.1,102.7 79.2,102.1 74.3,102.1 72.7,109.8 73.4,109.8 74.2,106.2 77.9,106.2 
	78,105.5 74.3,105.5 "/>
<path fill="#FFFFFF" d="M63,104.1c-2,0-3.1,1.8-3.1,3.6c0,1.4,0.8,2.3,2.3,2.3c2.1,0,3.1-1.8,3.1-3.7
	C65.2,104.9,64.3,104.1,63,104.1 M62.3,109.4c-1.1,0-1.7-0.7-1.7-1.8c0-1.3,0.8-3,2.3-3c1.1,0,1.7,0.7,1.7,1.8
	C64.6,107.7,63.8,109.4,62.3,109.4"/>
<path fill="#FFFFFF" d="M71.3,65.1c-2.1,2.1-3.3,4.7-3.3,7.2c0,1.4,0.4,2.7,1.2,3.8h2l2.6-12.9C72.9,63.7,72.1,64.4,71.3,65.1"/>
<path fill="#FFFFFF" d="M69.2,104.1c-0.8,0-1.6,0.5-2,1.2h0l0.2-1h-0.6l-1.2,5.6h0.7l0.6-2.9c0.3-1.4,1.2-2.3,2.2-2.3
	c0.6,0,1.2,0.3,1.2,1c0,0.2,0,0.4-0.1,0.6l-0.7,3.6h0.7l0.7-3.6c0.1-0.3,0.1-0.5,0.1-0.7C70.9,104.5,70.2,104.1,69.2,104.1"/>
<path fill="#FFFFFF" d="M56.9,102.5h-0.7l-0.3,1.7h-1l-0.1,0.6h1l-0.7,3.7c0,0.3-0.1,0.5-0.1,0.6c0,0.7,0.5,0.8,1,0.8
	c0.2,0,0.5,0,0.7,0l0.1-0.6c-0.3,0-0.5,0.1-0.8,0.1c-0.3,0-0.4-0.2-0.4-0.4c0-0.2,0-0.3,0.1-0.5l0.7-3.6h1.1l0.1-0.6h-1.1
	L56.9,102.5z"/>
<rect x="25.1" y="41.6" display="none" fill="none" width="100.4" height="68.9"/>
</svg>
